<svg xmlns="http://www.w3.org/2000/svg" viewBox="0 0 900 440" font-family="Helvetica, Arial, sans-serif"><defs><marker id="arrB" markerWidth="9" markerHeight="8" refX="7" refY="3" orient="auto"><path d="M0,0 L8,3 L0,6 z" fill="#1a4a7a"/></marker><marker id="arrO" markerWidth="9" markerHeight="8" refX="7" refY="3" orient="auto"><path d="M0,0 L8,3 L0,6 z" fill="#d97706"/></marker><marker id="arrG" markerWidth="9" markerHeight="8" refX="7" refY="3" orient="auto"><path d="M0,0 L8,3 L0,6 z" fill="#15803d"/></marker><marker id="arrR" markerWidth="9" markerHeight="8" refX="7" refY="3" orient="auto"><path d="M0,0 L8,3 L0,6 z" fill="#b91c1c"/></marker><marker id="arrY" markerWidth="9" markerHeight="8" refX="7" refY="3" orient="auto"><path d="M0,0 L8,3 L0,6 z" fill="#6b7280"/></marker></defs><rect width="900" height="440" fill="white"/><rect x="240" y="350" width="430" height="70" rx="8" fill="#eaf1f8" stroke="#1a4a7a" stroke-width="2"/><text x="455" y="380" font-size="21" fill="#1a4a7a" text-anchor="middle" font-weight="bold" >log — decay &amp; blend</text><text x="455" y="405" font-size="17" fill="#6b7280" text-anchor="middle" font-weight="normal" >positive states; chance on parity and S3</text><rect x="240" y="255" width="430" height="70" rx="8" fill="#eaf1f8" stroke="#1a4a7a" stroke-width="2"/><text x="455" y="285" font-size="21" fill="#1a4a7a" text-anchor="middle" font-weight="bold" >signed — adds sign flips</text><text x="455" y="310" font-size="17" fill="#6b7280" text-anchor="middle" font-weight="normal" >parity solved and held at length (tanh attractor)</text><rect x="240" y="160" width="430" height="70" rx="8" fill="#eaf1f8" stroke="#1a4a7a" stroke-width="2"/><text x="455" y="190" font-size="21" fill="#1a4a7a" text-anchor="middle" font-weight="bold" >rotation / givens — adds non-commuting maps</text><text x="455" y="215" font-size="17" fill="#6b7280" text-anchor="middle" font-weight="normal" >group composition (S3, S3-hier)</text><rect x="240" y="52" width="430" height="70" rx="8" fill="white" stroke="#6b7280" stroke-width="2" stroke-dasharray="7 6"/><text x="455" y="82" font-size="21" fill="#6b7280" text-anchor="middle" font-weight="bold" >GRU ceiling — state-dependent gates</text><text x="455" y="107" font-size="17" fill="#6b7280" text-anchor="middle" font-weight="normal" >1.000 everywhere, one layer — but not parallelizable</text><line x1="455" y1="426" x2="455" y2="426" stroke="#6b7280" stroke-width="2"/><line x1="455" y1="331" x2="455" y2="331" stroke="#6b7280" stroke-width="2"/><line x1="455" y1="236" x2="455" y2="236" stroke="#6b7280" stroke-width="2"/><line x1="455" y1="348" x2="455" y2="328" stroke="#6b7280" stroke-width="2" marker-end="url(#arrY)"/><line x1="455" y1="253" x2="455" y2="233" stroke="#6b7280" stroke-width="2" marker-end="url(#arrY)"/><line x1="455" y1="158" x2="455" y2="138" stroke="#b91c1c" stroke-width="2" stroke-dasharray="4 4"/><line x1="210" y1="160" x2="210" y2="420" stroke="#1a4a7a" stroke-width="3"/><line x1="210" y1="160" x2="222" y2="160" stroke="#1a4a7a" stroke-width="3"/><line x1="210" y1="420" x2="222" y2="420" stroke="#1a4a7a" stroke-width="3"/><text x="185" y="300" font-size="18" fill="#1a4a7a" text-anchor="middle" font-weight="normal" transform="rotate(-90 185 300)">one parallel scan (TC⁰)</text><text x="720" y="260" font-size="18" fill="#6b7280" text-anchor="start" font-weight="normal" >more algebra</text><text x="720" y="283" font-size="18" fill="#6b7280" text-anchor="start" font-weight="normal" >per token</text><line x1="700" y1="330" x2="700" y2="200" stroke="#6b7280" stroke-width="2" marker-end="url(#arrY)"/></svg>