<svg xmlns="http://www.w3.org/2000/svg" viewBox="0 0 780 445" font-family="Helvetica, Arial, sans-serif"><defs><marker id="arrB" markerWidth="9" markerHeight="8" refX="7" refY="3" orient="auto"><path d="M0,0 L8,3 L0,6 z" fill="#1a4a7a"/></marker><marker id="arrO" markerWidth="9" markerHeight="8" refX="7" refY="3" orient="auto"><path d="M0,0 L8,3 L0,6 z" fill="#d97706"/></marker><marker id="arrG" markerWidth="9" markerHeight="8" refX="7" refY="3" orient="auto"><path d="M0,0 L8,3 L0,6 z" fill="#15803d"/></marker><marker id="arrR" markerWidth="9" markerHeight="8" refX="7" refY="3" orient="auto"><path d="M0,0 L8,3 L0,6 z" fill="#b91c1c"/></marker><marker id="arrY" markerWidth="9" markerHeight="8" refX="7" refY="3" orient="auto"><path d="M0,0 L8,3 L0,6 z" fill="#6b7280"/></marker></defs><rect width="780" height="445" fill="white"/><line x1="100" y1="370.0" x2="700" y2="370.0" stroke="#d1d5db" stroke-width="1"/><text x="88" y="376.0" font-size="16" fill="#6b7280" text-anchor="end" font-weight="normal" >0</text><line x1="100" y1="270.0" x2="700" y2="270.0" stroke="#d1d5db" stroke-width="1"/><text x="88" y="276.0" font-size="16" fill="#6b7280" text-anchor="end" font-weight="normal" >4</text><line x1="100" y1="170.0" x2="700" y2="170.0" stroke="#d1d5db" stroke-width="1"/><text x="88" y="176.0" font-size="16" fill="#6b7280" text-anchor="end" font-weight="normal" >8</text><line x1="100" y1="70.0" x2="700" y2="70.0" stroke="#d1d5db" stroke-width="1"/><text x="88" y="76.0" font-size="16" fill="#6b7280" text-anchor="end" font-weight="normal" >12</text><rect x="110" y="345.0" width="120" height="25.0" rx="4" fill="#6b7280" stroke="#6b7280" stroke-width="2"/><text x="170" y="333.0" font-size="22" fill="#6b7280" text-anchor="middle" font-weight="bold" >1/12</text><text x="170" y="402" font-size="17" fill="#333" text-anchor="middle" font-weight="normal" >continuous 2D rotation</text><text x="170" y="424" font-size="15" fill="#6b7280" text-anchor="middle" font-weight="normal" >12,544 params</text><rect x="330" y="270.0" width="120" height="100.0" rx="4" fill="#6b7280" stroke="#6b7280" stroke-width="2"/><text x="390" y="258.0" font-size="22" fill="#6b7280" text-anchor="middle" font-weight="bold" >4/12</text><text x="390" y="402" font-size="17" fill="#333" text-anchor="middle" font-weight="normal" >delta rule, 64-state</text><text x="390" y="424" font-size="15" fill="#6b7280" text-anchor="middle" font-weight="normal" >3,306 params</text><rect x="550" y="170.0" width="120" height="200.0" rx="4" fill="#1a4a7a" stroke="#1a4a7a" stroke-width="2"/><text x="610" y="158.0" font-size="22" fill="#1a4a7a" text-anchor="middle" font-weight="bold" >8/12</text><text x="610" y="402" font-size="17" fill="#333" text-anchor="middle" font-weight="normal" >8D Givens product</text><text x="610" y="424" font-size="15" fill="#6b7280" text-anchor="middle" font-weight="normal" >14,624 params</text><line x1="170" y1="44" x2="610" y2="44" stroke="#1a4a7a" stroke-width="2"/><line x1="170" y1="44" x2="170" y2="56" stroke="#1a4a7a" stroke-width="2"/><line x1="610" y1="44" x2="610" y2="56" stroke="#1a4a7a" stroke-width="2"/><text x="390" y="36" font-size="18" fill="#1a4a7a" text-anchor="middle" font-weight="bold" >Fisher exact p ≈ 0.009</text></svg>