<svg xmlns="http://www.w3.org/2000/svg" viewBox="0 0 900 430" font-family="Helvetica, Arial, sans-serif"><defs><marker id="arrB" markerWidth="9" markerHeight="8" refX="7" refY="3" orient="auto"><path d="M0,0 L8,3 L0,6 z" fill="#1a4a7a"/></marker><marker id="arrO" markerWidth="9" markerHeight="8" refX="7" refY="3" orient="auto"><path d="M0,0 L8,3 L0,6 z" fill="#d97706"/></marker><marker id="arrG" markerWidth="9" markerHeight="8" refX="7" refY="3" orient="auto"><path d="M0,0 L8,3 L0,6 z" fill="#15803d"/></marker><marker id="arrR" markerWidth="9" markerHeight="8" refX="7" refY="3" orient="auto"><path d="M0,0 L8,3 L0,6 z" fill="#b91c1c"/></marker><marker id="arrY" markerWidth="9" markerHeight="8" refX="7" refY="3" orient="auto"><path d="M0,0 L8,3 L0,6 z" fill="#6b7280"/></marker></defs><rect width="900" height="430" fill="white"/><text x="450" y="36" font-size="21" fill="#1a4a7a" text-anchor="middle" font-weight="bold" >S₃ = every way to rearrange 3 objects — 3! = 6 elements</text><rect x="55" y="62" width="118" height="118" rx="10" fill="white" stroke="#d1d5db" stroke-width="1.5"/><circle cx="82" cy="88" r="9" fill="#b91c1c" stroke="#b91c1c" stroke-width="2"/><circle cx="82" cy="152" r="9" fill="#b91c1c" stroke="#b91c1c" stroke-width="2"/><line x1="82" y1="99" x2="82" y2="141" stroke="#6b7280" stroke-width="1.4" marker-end="url(#arrY)"/><circle cx="114" cy="88" r="9" fill="#1a4a7a" stroke="#1a4a7a" stroke-width="2"/><circle cx="114" cy="152" r="9" fill="#1a4a7a" stroke="#1a4a7a" stroke-width="2"/><line x1="114" y1="99" x2="114" y2="141" stroke="#6b7280" stroke-width="1.4" marker-end="url(#arrY)"/><circle cx="146" cy="88" r="9" fill="#15803d" stroke="#15803d" stroke-width="2"/><circle cx="146" cy="152" r="9" fill="#15803d" stroke="#15803d" stroke-width="2"/><line x1="146" y1="99" x2="146" y2="141" stroke="#6b7280" stroke-width="1.4" marker-end="url(#arrY)"/><text x="114" y="202" font-size="15" fill="#333" text-anchor="middle" font-weight="normal" >identity</text><rect x="190" y="62" width="118" height="118" rx="10" fill="white" stroke="#d1d5db" stroke-width="1.5"/><circle cx="217" cy="88" r="9" fill="#b91c1c" stroke="#b91c1c" stroke-width="2"/><circle cx="217" cy="152" r="9" fill="#15803d" stroke="#15803d" stroke-width="2"/><line x1="217" y1="99" x2="249" y2="141" stroke="#6b7280" stroke-width="1.4" marker-end="url(#arrY)"/><circle cx="249" cy="88" r="9" fill="#1a4a7a" stroke="#1a4a7a" stroke-width="2"/><circle cx="249" cy="152" r="9" fill="#b91c1c" stroke="#b91c1c" stroke-width="2"/><line x1="249" y1="99" x2="281" y2="141" stroke="#6b7280" stroke-width="1.4" marker-end="url(#arrY)"/><circle cx="281" cy="88" r="9" fill="#15803d" stroke="#15803d" stroke-width="2"/><circle cx="281" cy="152" r="9" fill="#1a4a7a" stroke="#1a4a7a" stroke-width="2"/><line x1="281" y1="99" x2="217" y2="141" stroke="#6b7280" stroke-width="1.4" marker-end="url(#arrY)"/><text x="249" y="202" font-size="15" fill="#333" text-anchor="middle" font-weight="normal" >rotate</text><rect x="325" y="62" width="118" height="118" rx="10" fill="white" stroke="#d1d5db" stroke-width="1.5"/><circle cx="352" cy="88" r="9" fill="#b91c1c" stroke="#b91c1c" stroke-width="2"/><circle cx="352" cy="152" r="9" fill="#1a4a7a" stroke="#1a4a7a" stroke-width="2"/><line x1="352" y1="99" x2="416" y2="141" stroke="#6b7280" stroke-width="1.4" marker-end="url(#arrY)"/><circle cx="384" cy="88" r="9" fill="#1a4a7a" stroke="#1a4a7a" stroke-width="2"/><circle cx="384" cy="152" r="9" fill="#15803d" stroke="#15803d" stroke-width="2"/><line x1="384" y1="99" x2="352" y2="141" stroke="#6b7280" stroke-width="1.4" marker-end="url(#arrY)"/><circle cx="416" cy="88" r="9" fill="#15803d" stroke="#15803d" stroke-width="2"/><circle cx="416" cy="152" r="9" fill="#b91c1c" stroke="#b91c1c" stroke-width="2"/><line x1="416" y1="99" x2="384" y2="141" stroke="#6b7280" stroke-width="1.4" marker-end="url(#arrY)"/><text x="384" y="202" font-size="15" fill="#333" text-anchor="middle" font-weight="normal" >rotate²</text><rect x="460" y="62" width="118" height="118" rx="10" fill="white" stroke="#d1d5db" stroke-width="1.5"/><circle cx="487" cy="88" r="9" fill="#b91c1c" stroke="#b91c1c" stroke-width="2"/><circle cx="487" cy="152" r="9" fill="#1a4a7a" stroke="#1a4a7a" stroke-width="2"/><line x1="487" y1="99" x2="519" y2="141" stroke="#6b7280" stroke-width="1.4" marker-end="url(#arrY)"/><circle cx="519" cy="88" r="9" fill="#1a4a7a" stroke="#1a4a7a" stroke-width="2"/><circle cx="519" cy="152" r="9" fill="#b91c1c" stroke="#b91c1c" stroke-width="2"/><line x1="519" y1="99" x2="487" y2="141" stroke="#6b7280" stroke-width="1.4" marker-end="url(#arrY)"/><circle cx="551" cy="88" r="9" fill="#15803d" stroke="#15803d" stroke-width="2"/><circle cx="551" cy="152" r="9" fill="#15803d" stroke="#15803d" stroke-width="2"/><line x1="551" y1="99" x2="551" y2="141" stroke="#6b7280" stroke-width="1.4" marker-end="url(#arrY)"/><text x="519" y="202" font-size="15" fill="#333" text-anchor="middle" font-weight="normal" >swap 1,2</text><rect x="595" y="62" width="118" height="118" rx="10" fill="white" stroke="#d1d5db" stroke-width="1.5"/><circle cx="622" cy="88" r="9" fill="#b91c1c" stroke="#b91c1c" stroke-width="2"/><circle cx="622" cy="152" r="9" fill="#b91c1c" stroke="#b91c1c" stroke-width="2"/><line x1="622" y1="99" x2="622" y2="141" stroke="#6b7280" stroke-width="1.4" marker-end="url(#arrY)"/><circle cx="654" cy="88" r="9" fill="#1a4a7a" stroke="#1a4a7a" stroke-width="2"/><circle cx="654" cy="152" r="9" fill="#15803d" stroke="#15803d" stroke-width="2"/><line x1="654" y1="99" x2="686" y2="141" stroke="#6b7280" stroke-width="1.4" marker-end="url(#arrY)"/><circle cx="686" cy="88" r="9" fill="#15803d" stroke="#15803d" stroke-width="2"/><circle cx="686" cy="152" r="9" fill="#1a4a7a" stroke="#1a4a7a" stroke-width="2"/><line x1="686" y1="99" x2="654" y2="141" stroke="#6b7280" stroke-width="1.4" marker-end="url(#arrY)"/><text x="654" y="202" font-size="15" fill="#333" text-anchor="middle" font-weight="normal" >swap 2,3</text><rect x="730" y="62" width="118" height="118" rx="10" fill="white" stroke="#d1d5db" stroke-width="1.5"/><circle cx="757" cy="88" r="9" fill="#b91c1c" stroke="#b91c1c" stroke-width="2"/><circle cx="757" cy="152" r="9" fill="#15803d" stroke="#15803d" stroke-width="2"/><line x1="757" y1="99" x2="821" y2="141" stroke="#6b7280" stroke-width="1.4" marker-end="url(#arrY)"/><circle cx="789" cy="88" r="9" fill="#1a4a7a" stroke="#1a4a7a" stroke-width="2"/><circle cx="789" cy="152" r="9" fill="#1a4a7a" stroke="#1a4a7a" stroke-width="2"/><line x1="789" y1="99" x2="789" y2="141" stroke="#6b7280" stroke-width="1.4" marker-end="url(#arrY)"/><circle cx="821" cy="88" r="9" fill="#15803d" stroke="#15803d" stroke-width="2"/><circle cx="821" cy="152" r="9" fill="#b91c1c" stroke="#b91c1c" stroke-width="2"/><line x1="821" y1="99" x2="757" y2="141" stroke="#6b7280" stroke-width="1.4" marker-end="url(#arrY)"/><text x="789" y="202" font-size="15" fill="#333" text-anchor="middle" font-weight="normal" >swap 1,3</text><text x="450" y="258" font-size="19" fill="#333" text-anchor="middle" font-weight="normal" >a word = a stream of elements · the word problem = the net rearrangement at every prefix</text><circle cx="120" cy="310" r="15" fill="#b91c1c" stroke="#b91c1c" stroke-width="2"/><circle cx="160" cy="310" r="15" fill="#1a4a7a" stroke="#1a4a7a" stroke-width="2"/><circle cx="200" cy="310" r="15" fill="#15803d" stroke="#15803d" stroke-width="2"/><circle cx="330" cy="310" r="15" fill="#15803d" stroke="#15803d" stroke-width="2"/><circle cx="370" cy="310" r="15" fill="#b91c1c" stroke="#b91c1c" stroke-width="2"/><circle cx="410" cy="310" r="15" fill="#1a4a7a" stroke="#1a4a7a" stroke-width="2"/><text x="370" y="355" font-size="13" fill="#6b7280" text-anchor="middle" font-weight="normal" >prefix rotate</text><circle cx="540" cy="310" r="15" fill="#b91c1c" stroke="#b91c1c" stroke-width="2"/><circle cx="580" cy="310" r="15" fill="#15803d" stroke="#15803d" stroke-width="2"/><circle cx="620" cy="310" r="15" fill="#1a4a7a" stroke="#1a4a7a" stroke-width="2"/><text x="580" y="355" font-size="13" fill="#6b7280" text-anchor="middle" font-weight="normal" >prefix rotate·swap 1,2</text><circle cx="750" cy="310" r="15" fill="#1a4a7a" stroke="#1a4a7a" stroke-width="2"/><circle cx="790" cy="310" r="15" fill="#b91c1c" stroke="#b91c1c" stroke-width="2"/><circle cx="830" cy="310" r="15" fill="#15803d" stroke="#15803d" stroke-width="2"/><text x="790" y="355" font-size="13" fill="#6b7280" text-anchor="middle" font-weight="normal" >prefix rotate·swap 1,2·rotate</text><line x1="224" y1="310" x2="306" y2="310" stroke="#6b7280" stroke-width="2.2" marker-end="url(#arrY)"/><text x="265.0" y="296" font-size="15" fill="#6b7280" text-anchor="middle" font-weight="normal" >rotate</text><line x1="434" y1="310" x2="516" y2="310" stroke="#6b7280" stroke-width="2.2" marker-end="url(#arrY)"/><text x="475.0" y="296" font-size="15" fill="#6b7280" text-anchor="middle" font-weight="normal" >swap 1,2</text><line x1="644" y1="310" x2="726" y2="310" stroke="#6b7280" stroke-width="2.2" marker-end="url(#arrY)"/><text x="685.0" y="296" font-size="15" fill="#6b7280" text-anchor="middle" font-weight="normal" >rotate</text><text x="450" y="408" font-size="19" fill="#333" text-anchor="middle" font-weight="normal" >S₅: the same game with 5 objects — 5! = 120 elements. That jump is the complexity cliff.</text></svg>